<svg fill="none" height="36" viewBox="0 0 36 36" width="36" xmlns="http://www.w3.org/2000/svg">
    <circle cx="18" cy="18" fill="white" fill-opacity="0.7" r="18" />
    <path
        d="M13.0396 7.36066H23.2228C23.5977 7.36066 23.9017 7.668 23.9017 8.04707V27.9529C23.9017 28.332 23.5977 28.6393 23.2228 28.6393H13.0396C12.6647 28.6393 12.3607 28.332 12.3607 27.9529V8.04707C12.3607 7.668 12.6647 7.36066 13.0396 7.36066Z"
        fill="#F8F5F1" />
    <path d="M12.3607 10.2459H23.9017V23.9508H12.3607V10.2459Z" fill="#FFE5BA" />
    <path
        d="M19.2131 26.2951C19.2131 26.793 18.7287 27.1967 18.1312 27.1967C17.5337 27.1967 17.0492 26.793 17.0492 26.2951C17.0492 25.7972 17.5337 25.3934 18.1312 25.3934C18.7287 25.3934 19.2131 25.7972 19.2131 26.2951Z"
        fill="#168E96" />
    <path
        d="M20.7514 21.1806L22.459 19.4729L20.5076 17.5217L19.7758 18.2552C19.5063 18.5247 19.0696 18.5247 18.8001 18.2552L17.3366 16.7919C17.0673 16.5224 17.0673 16.0856 17.3366 15.8161L18.0685 15.0843L16.1172 13.1311L14.4096 14.8388C13.6012 15.6469 13.6012 16.9576 14.4096 17.7658L17.8244 21.1806C18.6326 21.989 19.9433 21.989 20.7514 21.1806Z"
        fill="#F5A623" />
    <path
        d="M21.7378 15.6557H21.026C21.0248 14.655 20.2139 13.8441 19.2132 13.8429V13.1311C20.6069 13.1324 21.7366 14.262 21.7378 15.6557Z"
        fill="white" />
    <path
        d="M23.1804 15.6557H22.4591C22.4572 13.8639 21.005 12.4118 19.2132 12.4098V11.6885C21.4032 11.6912 23.1778 13.4657 23.1804 15.6557Z"
        fill="white" />
    <path
        d="M23.2404 7H13.0219C12.4575 7 12 7.46175 12 8.03125V27.9688C12 28.5383 12.4575 29 13.0219 29H23.2404C23.8048 29 24.2623 28.5383 24.2623 27.9688V8.03125C24.2623 7.46175 23.8048 7 23.2404 7ZM23.5811 27.9688C23.5811 28.1586 23.4285 28.3125 23.2404 28.3125H13.0219C12.8338 28.3125 12.6812 28.1586 12.6812 27.9688V24.1875H23.5811V27.9688ZM23.5811 23.5H12.6812V10.4375H23.5811V23.5ZM23.5811 9.75H12.6812V8.03125C12.6812 7.84142 12.8338 7.6875 13.0219 7.6875H23.2404C23.4285 7.6875 23.5811 7.84142 23.5811 8.03125V9.75Z"
        fill="#333333" />
    <path d="M19.5738 8.44263H20.2951V9.16394H19.5738V8.44263Z" fill="#333333" />
    <path d="M15.9672 8.44263H18.8524V9.16394H15.9672V8.44263Z" fill="#333333" />
    <path
        d="M18.1311 27.5574C18.9278 27.5574 19.5738 26.9922 19.5738 26.2951C19.5738 25.598 18.9278 25.0328 18.1311 25.0328C17.3345 25.0328 16.6885 25.598 16.6885 26.2951C16.6885 26.9922 17.3345 27.5574 18.1311 27.5574ZM18.1311 25.6639C18.5295 25.6639 18.8524 25.9465 18.8524 26.2951C18.8524 26.6436 18.5295 26.9262 18.1311 26.9262C17.7328 26.9262 17.4098 26.6436 17.4098 26.2951C17.4098 25.9465 17.7328 25.6639 18.1311 25.6639Z"
        fill="#333333" />
    <path
        d="M17.515 21.4496C18.4479 22.3802 19.9577 22.3802 20.8906 21.4496L22.8197 19.5202L20.4079 17.1081L19.4429 18.0732C19.3088 18.2008 19.0981 18.2008 18.964 18.0732L17.5176 16.6269C17.3857 16.4946 17.3857 16.2804 17.5176 16.1479L18.4823 15.1828L16.0709 12.7705L14.1418 14.6999C13.2096 15.6322 13.2096 17.144 14.1418 18.0764L17.515 21.4496ZM14.6246 15.1824L16.0699 13.7368L17.5125 15.1814L17.0336 15.6624C16.6335 16.0622 16.6335 16.7109 17.0336 17.1107L18.4789 18.5564C18.8838 18.9436 19.5217 18.9436 19.9266 18.5564L20.4079 18.0774L21.8522 19.5218L20.4069 20.9675C19.7414 21.6314 18.6642 21.6314 17.9985 20.9675L14.6246 17.5929C13.9596 16.9276 13.9596 15.8492 14.6246 15.1841V15.1824Z"
        fill="#333333" />
</svg>
