<svg fill="none" height="36" viewBox="0 0 36 36" width="36" xmlns="http://www.w3.org/2000/svg">
    <circle cx="18" cy="18" fill="white" fill-opacity="0.7" r="18" />
    <path
        d="M26.6971 9.303V24.6005C26.6971 25.1573 26.4759 25.6914 26.0821 26.0852C25.6883 26.4789 25.1543 26.7001 24.5974 26.7001H11.6996C12.336 26.7001 12.9463 26.4473 13.3963 25.9973C13.8464 25.5473 14.0992 24.9369 14.0992 24.3005V9.303L15.359 10.5028L16.6157 9.303L17.8755 10.5028L19.1353 9.303L20.3951 10.5028L21.6549 9.303L22.9147 10.5028L24.1745 9.303L25.4343 10.5028L26.6971 9.303Z"
        fill="#FFCC79" />
    <path
        d="M14.0992 18.0016V24.3006C14.0992 24.937 13.8464 25.5474 13.3964 25.9974C12.9463 26.4474 12.336 26.7002 11.6996 26.7002C11.0632 26.7002 10.4528 26.4474 10.0028 25.9974C9.55279 25.5474 9.29997 24.937 9.29997 24.3006V18.0016H14.0992Z"
        fill="#168E96" />
    <path
        d="M26.8171 9.02727C26.7631 9.00408 26.7036 8.99723 26.6458 9.00757C26.588 9.01792 26.5345 9.045 26.4919 9.08546L25.4373 10.0888L24.3812 9.08546C24.3254 9.03237 24.2513 9.00276 24.1743 9.00276C24.0973 9.00276 24.0233 9.03237 23.9675 9.08546L22.9141 10.0885L21.8613 9.08576C21.8055 9.03267 21.7315 9.00306 21.6545 9.00306C21.5775 9.00306 21.5034 9.03267 21.4476 9.08576L20.3951 10.0885L19.3423 9.08576C19.2865 9.03276 19.2126 9.0032 19.1356 9.0032C19.0587 9.0032 18.9847 9.03276 18.929 9.08576L17.8761 10.0885L16.8233 9.08576C16.7675 9.03267 16.6935 9.00306 16.6165 9.00306C16.5395 9.00306 16.4654 9.03267 16.4097 9.08576L15.3589 10.0885L14.3091 9.08576C14.2668 9.04423 14.213 9.01619 14.1547 9.0052C14.0964 8.9942 14.0362 9.00074 13.9816 9.02398C13.927 9.04723 13.8806 9.08614 13.8481 9.13579C13.8156 9.18544 13.7986 9.2436 13.7992 9.30292V17.7015H9.29995C9.2204 17.7015 9.14411 17.7331 9.08785 17.7894C9.0316 17.8456 9 17.9219 9 18.0015V24.3004C9.00079 25.0162 9.28547 25.7024 9.79156 26.2084C10.2977 26.7145 10.9838 26.9992 11.6996 27H24.5974C25.2336 26.9993 25.8436 26.7462 26.2934 26.2964C26.7433 25.8465 26.9963 25.2366 26.997 24.6004V9.30292C26.9972 9.24443 26.9802 9.18717 26.9482 9.1382C26.9163 9.08922 26.8707 9.05066 26.8171 9.02727ZM9.5999 24.3004V18.3014H13.7992V24.3004C13.7992 24.8573 13.578 25.3914 13.1842 25.7851C12.7905 26.1789 12.2564 26.4001 11.6996 26.4001C11.1427 26.4001 10.6086 26.1789 10.2149 25.7851C9.82111 25.3914 9.5999 24.8573 9.5999 24.3004ZM26.3971 24.6004C26.3967 25.0776 26.2069 25.535 25.8695 25.8725C25.5321 26.2099 25.0746 26.3996 24.5974 26.4001H13.3925C13.7066 26.1477 13.9601 25.828 14.1343 25.4646C14.3085 25.1012 14.399 24.7034 14.3991 24.3004V10.0033L15.149 10.7199C15.2048 10.7731 15.2789 10.8027 15.356 10.8027C15.433 10.8027 15.5071 10.7731 15.5629 10.7199L16.6151 9.71715L17.6686 10.7199C17.7243 10.773 17.7984 10.8026 17.8754 10.8026C17.9524 10.8026 18.0264 10.773 18.0822 10.7199L19.135 9.71715L20.1882 10.7199C20.2439 10.773 20.318 10.8026 20.395 10.8026C20.472 10.8026 20.546 10.773 20.6018 10.7199L21.654 9.71715L22.7077 10.7199C22.7635 10.773 22.8376 10.8026 22.9146 10.8026C22.9915 10.8026 23.0656 10.773 23.1214 10.7199L24.1745 9.71685L25.2288 10.7202C25.2846 10.7733 25.3586 10.8029 25.4356 10.8029C25.5126 10.8029 25.5867 10.7733 25.6425 10.7202L26.3971 10.0024V24.6004Z"
        fill="black" />
    <path d="M15.5989 21.001H16.7987V21.6009H15.5989V21.001Z" fill="black" />
    <path d="M17.3987 21.001H19.7983V21.6009H17.3987V21.001Z" fill="black" />
    <path d="M20.3981 21.001H22.7977V21.6009H20.3981V21.001Z" fill="black" />
    <path d="M23.3976 21.001H25.7972V21.6009H23.3976V21.001Z" fill="black" />
    <path d="M15.5989 22.8008H18.5984V23.4007H15.5989V22.8008Z" fill="black" />
    <path d="M19.1983 22.8008H19.7982V23.4007H19.1983V22.8008Z" fill="black" />
    <path d="M20.3981 22.8008H23.9975V23.4007H20.3981V22.8008Z" fill="black" />
    <path d="M24.5974 22.8008H25.7972V23.4007H24.5974V22.8008Z" fill="black" />
    <path d="M15.5989 24.6003H16.1988V25.2002H15.5989V24.6003Z" fill="black" />
    <path d="M16.7987 24.6003H19.7982V25.2002H16.7987V24.6003Z" fill="black" />
    <path d="M20.3981 24.6003H21.5979V25.2002H20.3981V24.6003Z" fill="black" />
    <path d="M22.1978 24.6003H25.7972V25.2002H22.1978V24.6003Z" fill="black" />
    <path d="M15.5989 11.9994H21.5979V12.5993H15.5989V11.9994Z" fill="black" />
    <path d="M15.5989 13.1993H19.5358V13.7992H15.5989V13.1993Z" fill="black" />
    <path d="M15.5989 14.9991H24.5974V15.599H15.5989V14.9991Z" fill="black" />
    <path d="M15.5989 16.1988H19.1983V16.7987H15.5989V16.1988Z" fill="black" />
    <path d="M21.223 16.1988H23.0227V16.7987H21.223V16.1988Z" fill="black" />
    <path d="M19.7233 17.9234H21.523V18.5233H19.7233V17.9234Z" fill="black" />
    <path d="M23.3976 12.0026H25.1973V12.6025H23.3976V12.0026Z" fill="black" />
    <path d="M24.5974 13.2022H25.1973V13.8021H24.5974V13.2022Z" fill="black" />
    <path d="M15.5989 19.2012H17.3986V19.8011H15.5989V19.2012Z" fill="black" />
    <path d="M15.5989 18.0016H16.1988V18.6015H15.5989V18.0016Z" fill="black" />
    <path d="M23.3976 19.2012H25.1973V19.8011H23.3976V19.2012Z" fill="black" />
    <path d="M24.5974 18.0016H25.1973V18.6015H24.5974V18.0016Z" fill="black" />
</svg>
