<svg fill="none" height="9" viewBox="0 0 14 9" width="14" xmlns="http://www.w3.org/2000/svg">
    <path
        d="M13.9445 4.2093C13.1515 3.50059 10.2707 0 7.00006 0C3.72937 0 0.848665 3.50059 0.0556495 4.2093C-0.0185498 4.27541 -0.0185498 4.39114 0.0556495 4.45725C0.848665 5.16596 3.58346 8.66655 7.00006 8.66655C10.4167 8.66655 13.1515 5.1658 13.9445 4.4571C14.0185 4.39114 14.0185 4.27541 13.9445 4.2093ZM7.00006 6.83319C5.61936 6.83319 4.50015 5.71382 4.50015 4.33328C4.50015 2.95273 5.61936 1.83336 7.00006 1.83336C8.3806 1.83336 9.49997 2.95273 9.49997 4.33328C9.49997 5.71382 8.3806 6.83319 7.00006 6.83319Z"
        fill="#333333" />
    <path
        d="M7.00006 3.16666C6.3556 3.16666 5.8334 3.68901 5.8334 4.33331C5.8334 4.97762 6.3556 5.49997 7.00006 5.49997C7.64437 5.49997 8.16672 4.97762 8.16672 4.33331C8.16672 3.68901 7.64437 3.16666 7.00006 3.16666Z"
        fill="#333333" />
</svg>
