<svg fill="none" height="25" viewBox="0 0 25 25" width="25" xmlns="http://www.w3.org/2000/svg">
    <path clip-rule="evenodd" d="M21.4 9.20009H21C19.4536 9.20009 18.2 7.94649 18.2 6.40009C18.2 7.94649 16.9464 9.20009 15.4 9.20009C13.8536 9.20009 12.6 7.94649 12.6 6.40009C12.6 7.94649 11.3464 9.20009 9.8 9.20009C8.2536 9.20009 7 7.94649 7 6.40009C7 7.94649 5.7464 9.20009 4.2 9.20009H3.8C2.2536 9.20009 1 7.94649 1 6.40009V24.4001H24.2V6.40009C24.2 7.94649 22.9464 9.20009 21.4 9.20009Z"
        fill="#F5EFCA"
        fill-rule="evenodd" />
    <path clip-rule="evenodd" d="M2.60001 21.6001H15V11.2001H2.60001V21.6001Z" fill="#7F6E5D"
        fill-rule="evenodd" />
    <path clip-rule="evenodd" d="M2.60001 21.6001H15V11.2001H2.60001V21.6001Z" fill-rule="evenodd"
        stroke="#CBB292" stroke-width="0.8" />
    <path d="M4.60001 14.4001L6.20001 12.8001" stroke="#CBB292" stroke-linecap="round"
        stroke-width="0.8" />
    <path d="M4.60001 16.4001L5.40001 15.6001" stroke="#CBB292" stroke-linecap="round"
        stroke-width="0.8" />
    <path d="M7 14.0001L8.2 12.8001" stroke="#CBB292" stroke-linecap="round" stroke-width="0.8" />
    <path d="M4.60001 18.4001L8.20001 14.8001" stroke="#CBB292" stroke-linecap="round"
        stroke-width="0.8" />
    <path clip-rule="evenodd" d="M4.19999 23.2001H3.79999C3.57879 23.2001 3.39999 23.0213 3.39999 22.8001C3.39999 22.5789 3.57879 22.4001 3.79999 22.4001H4.19999C4.42119 22.4001 4.59999 22.5789 4.59999 22.8001C4.59999 23.0213 4.42119 23.2001 4.19999 23.2001Z"
        fill="#CBB292"
        fill-rule="evenodd" />
    <path clip-rule="evenodd" d="M2.6 23.2001H2.2C1.9788 23.2001 1.8 23.0213 1.8 22.8001C1.8 22.5789 1.9788 22.4001 2.2 22.4001H2.6C2.8212 22.4001 3 22.5789 3 22.8001C3 23.0213 2.8212 23.2001 2.6 23.2001Z"
        fill="#CBB292"
        fill-rule="evenodd" />
    <path clip-rule="evenodd" d="M5.40001 24.4001H5.00001C4.77881 24.4001 4.60001 24.2213 4.60001 24.0001C4.60001 23.7789 4.77881 23.6001 5.00001 23.6001H5.40001C5.62121 23.6001 5.80001 23.7789 5.80001 24.0001C5.80001 24.2213 5.62121 24.4001 5.40001 24.4001Z"
        fill="#CBB292"
        fill-rule="evenodd" />
    <path clip-rule="evenodd" d="M2.19999 24.4001H1.79999C1.57879 24.4001 1.39999 24.2213 1.39999 24.0001C1.39999 23.7789 1.57879 23.6001 1.79999 23.6001H2.19999C2.42119 23.6001 2.59999 23.7789 2.59999 24.0001C2.59999 24.2213 2.42119 24.4001 2.19999 24.4001Z"
        fill="#CBB292"
        fill-rule="evenodd" />
    <path clip-rule="evenodd" d="M3.8 24.4001H3.4C3.1788 24.4001 3 24.2213 3 24.0001C3 23.7789 3.1788 23.6001 3.4 23.6001H3.8C4.0212 23.6001 4.2 23.7789 4.2 24.0001C4.2 24.2213 4.0212 24.4001 3.8 24.4001Z"
        fill="#CBB292"
        fill-rule="evenodd" />
    <path clip-rule="evenodd" d="M7.40001 23.2001H7.00001C6.77881 23.2001 6.60001 23.0213 6.60001 22.8001C6.60001 22.5789 6.77881 22.4001 7.00001 22.4001H7.40001C7.62121 22.4001 7.80001 22.5789 7.80001 22.8001C7.80001 23.0213 7.62121 23.2001 7.40001 23.2001Z"
        fill="#CBB292"
        fill-rule="evenodd" />
    <path clip-rule="evenodd" d="M5.8 23.2001H5.4C5.1788 23.2001 5 23.0213 5 22.8001C5 22.5789 5.1788 22.4001 5.4 22.4001H5.8C6.0212 22.4001 6.2 22.5789 6.2 22.8001C6.2 23.0213 6.0212 23.2001 5.8 23.2001Z"
        fill="#CBB292"
        fill-rule="evenodd" />
    <path clip-rule="evenodd" d="M7 24.4001H6.6C6.3788 24.4001 6.2 24.2213 6.2 24.0001C6.2 23.7789 6.3788 23.6001 6.6 23.6001H7C7.2212 23.6001 7.4 23.7789 7.4 24.0001C7.4 24.2213 7.2212 24.4001 7 24.4001Z"
        fill="#CBB292"
        fill-rule="evenodd" />
    <path clip-rule="evenodd" d="M10.6 23.2001H10.2C9.9788 23.2001 9.8 23.0213 9.8 22.8001C9.8 22.5789 9.9788 22.4001 10.2 22.4001H10.6C10.8212 22.4001 11 22.5789 11 22.8001C11 23.0213 10.8212 23.2001 10.6 23.2001Z"
        fill="#CBB292"
        fill-rule="evenodd" />
    <path clip-rule="evenodd" d="M9 23.2001H8.6C8.3788 23.2001 8.2 23.0213 8.2 22.8001C8.2 22.5789 8.3788 22.4001 8.6 22.4001H9C9.2212 22.4001 9.4 22.5789 9.4 22.8001C9.4 23.0213 9.2212 23.2001 9 23.2001Z"
        fill="#CBB292"
        fill-rule="evenodd" />
    <path clip-rule="evenodd" d="M11.8 24.4001H11.4C11.1788 24.4001 11 24.2213 11 24.0001C11 23.7789 11.1788 23.6001 11.4 23.6001H11.8C12.0212 23.6001 12.2 23.7789 12.2 24.0001C12.2 24.2213 12.0212 24.4001 11.8 24.4001Z"
        fill="#CBB292"
        fill-rule="evenodd" />
    <path clip-rule="evenodd" d="M8.6 24.4001H8.2C7.9788 24.4001 7.8 24.2213 7.8 24.0001C7.8 23.7789 7.9788 23.6001 8.2 23.6001H8.6C8.8212 23.6001 9 23.7789 9 24.0001C9 24.2213 8.8212 24.4001 8.6 24.4001Z"
        fill="#CBB292"
        fill-rule="evenodd" />
    <path clip-rule="evenodd" d="M10.2 24.4001H9.79999C9.57879 24.4001 9.39999 24.2213 9.39999 24.0001C9.39999 23.7789 9.57879 23.6001 9.79999 23.6001H10.2C10.4212 23.6001 10.6 23.7789 10.6 24.0001C10.6 24.2213 10.4212 24.4001 10.2 24.4001Z"
        fill="#CBB292"
        fill-rule="evenodd" />
    <path clip-rule="evenodd" d="M13.8 23.2001H13.4C13.1788 23.2001 13 23.0213 13 22.8001C13 22.5789 13.1788 22.4001 13.4 22.4001H13.8C14.0212 22.4001 14.2 22.5789 14.2 22.8001C14.2 23.0213 14.0212 23.2001 13.8 23.2001Z"
        fill="#CBB292"
        fill-rule="evenodd" />
    <path clip-rule="evenodd" d="M12.2 23.2001H11.8C11.5788 23.2001 11.4 23.0213 11.4 22.8001C11.4 22.5789 11.5788 22.4001 11.8 22.4001H12.2C12.4212 22.4001 12.6 22.5789 12.6 22.8001C12.6 23.0213 12.4212 23.2001 12.2 23.2001Z"
        fill="#CBB292"
        fill-rule="evenodd" />
    <path clip-rule="evenodd" d="M13.4 24.4001H13C12.7788 24.4001 12.6 24.2213 12.6 24.0001C12.6 23.7789 12.7788 23.6001 13 23.6001H13.4C13.6212 23.6001 13.8 23.7789 13.8 24.0001C13.8 24.2213 13.6212 24.4001 13.4 24.4001Z"
        fill="#CBB292"
        fill-rule="evenodd" />
    <path clip-rule="evenodd" d="M15.4 23.2001H15C14.7788 23.2001 14.6 23.0213 14.6 22.8001C14.6 22.5789 14.7788 22.4001 15 22.4001H15.4C15.6212 22.4001 15.8 22.5789 15.8 22.8001C15.8 23.0213 15.6212 23.2001 15.4 23.2001Z"
        fill="#CBB292"
        fill-rule="evenodd" />
    <path clip-rule="evenodd" d="M15 24.4001H14.6C14.3788 24.4001 14.2 24.2213 14.2 24.0001C14.2 23.7789 14.3788 23.6001 14.6 23.6001H15C15.2212 23.6001 15.4 23.7789 15.4 24.0001C15.4 24.2213 15.2212 24.4001 15 24.4001Z"
        fill="#CBB292"
        fill-rule="evenodd" />
    <path clip-rule="evenodd" d="M7.8 1.20007H6.6096H6.6V1.20047C4.0008 1.20487 1.7356 2.94887 1.0416 5.45487C0.956401 5.76247 1.0752 5.60007 1.1512 5.60007H6.6H7H12.6V1.20007H7.8Z"
        fill="#71C285"
        fill-rule="evenodd" />
    <path clip-rule="evenodd" d="M19 5.60007H24.058C24.1292 5.60007 24.2188 5.66887 24.1612 5.46367L24.1584 5.45447C23.5108 3.07567 21.43 1.38927 19 1.21727V1.20007H18.5904H17.4H12.6V5.60007H18.2H19Z"
        fill="#F3D55B"
        fill-rule="evenodd" />
    <path clip-rule="evenodd" d="M12.6 5.60007H7C7.4632 3.05207 9.6824 1.20007 12.272 1.20007H12.6V5.60007Z"
        fill="#F3D55B"
        fill-rule="evenodd" />
    <path clip-rule="evenodd" d="M18.2 5.60007H12.6V1.20007H12.928C15.5176 1.20007 17.7368 3.05207 18.2 5.60007Z"
        fill="#71C285"
        fill-rule="evenodd" />
    <path clip-rule="evenodd" d="M4.2 9.20007H3.8C2.2536 9.20007 1 7.94647 1 6.40007V5.66407C1 5.62887 1.0288 5.60007 1.064 5.60007H7V6.40007C7 7.94647 5.7464 9.20007 4.2 9.20007Z"
        fill="#00AD26"
        fill-rule="evenodd" />
    <path clip-rule="evenodd" d="M9.8 9.20007C8.2536 9.20007 7 7.94647 7 6.40007V5.60007H12.6V6.40007C12.6 7.94647 11.3464 9.20007 9.8 9.20007Z"
        fill="#DDB200"
        fill-rule="evenodd" />
    <path clip-rule="evenodd" d="M15.4 9.20007C13.8536 9.20007 12.6 7.94647 12.6 6.40007V5.60007H18.2V6.40007C18.2 7.94647 16.9464 9.20007 15.4 9.20007Z"
        fill="#00AD26"
        fill-rule="evenodd" />
    <path clip-rule="evenodd" d="M21.4 9.20007H21C19.4536 9.20007 18.2 7.94647 18.2 6.40007V5.60007H24.136C24.1712 5.60007 24.2 5.62887 24.2 5.66407V6.40007C24.2 7.94647 22.9464 9.20007 21.4 9.20007Z"
        fill="#DDB200"
        fill-rule="evenodd" />
    <path clip-rule="evenodd" d="M22.6 24.4001H16.6V14.2001C16.6 12.5433 17.9432 11.2001 19.6 11.2001C21.2568 11.2001 22.6 12.5433 22.6 14.2001V24.4001Z"
        fill="#7F6E5D"
        fill-rule="evenodd" />
    <path clip-rule="evenodd" d="M22.6 24.4001H16.6V14.2001C16.6 12.5433 17.9432 11.2001 19.6 11.2001C21.2568 11.2001 22.6 12.5433 22.6 14.2001V24.4001V24.4001Z"
        fill-rule="evenodd"
        stroke="#CBB292" stroke-width="0.8" />
    <path clip-rule="evenodd" d="M12.6 5.60007H7C7.4632 3.05207 9.6824 1.20007 12.272 1.20007H12.6V5.60007V5.60007Z"
        fill-rule="evenodd"
        stroke="black" stroke-width="0.8" />
    <path clip-rule="evenodd" d="M18.2 5.60007H12.6V1.20007H12.928C15.5176 1.20007 17.7368 3.05207 18.2 5.60007V5.60007Z"
        fill-rule="evenodd"
        stroke="black" stroke-width="0.8" />
    <path clip-rule="evenodd" d="M4.2 9.20007H3.8C2.2536 9.20007 1 7.94647 1 6.40007V5.66407C1 5.62887 1.0288 5.60007 1.064 5.60007H7V6.40007C7 7.94647 5.7464 9.20007 4.2 9.20007V9.20007Z"
        fill-rule="evenodd"
        stroke="black" stroke-width="0.8" />
    <path clip-rule="evenodd" d="M9.8 9.20007V9.20007C8.2536 9.20007 7 7.94647 7 6.40007V5.60007H12.6V6.40007C12.6 7.94647 11.3464 9.20007 9.8 9.20007V9.20007Z"
        fill-rule="evenodd"
        stroke="black" stroke-width="0.8" />
    <path clip-rule="evenodd" d="M15.4 9.20007V9.20007C13.8536 9.20007 12.6 7.94647 12.6 6.40007V5.60007H18.2V6.40007C18.2 7.94647 16.9464 9.20007 15.4 9.20007V9.20007Z"
        fill-rule="evenodd"
        stroke="black" stroke-width="0.8" />
    <path clip-rule="evenodd" d="M21.4 9.20007H21C19.4536 9.20007 18.2 7.94647 18.2 6.40007V5.60007H24.136C24.1712 5.60007 24.2 5.62887 24.2 5.66407V6.40007C24.2 7.94647 22.9464 9.20007 21.4 9.20007V9.20007Z"
        fill-rule="evenodd"
        stroke="black" stroke-width="0.8" />
    <path clip-rule="evenodd" d="M22.6 24.4001H16.6V14.2001C16.6 12.5433 17.9432 11.2001 19.6 11.2001C21.2568 11.2001 22.6 12.5433 22.6 14.2001V24.4001V24.4001Z"
        fill-rule="evenodd"
        stroke="black" stroke-width="0.8" />
    <path clip-rule="evenodd" d="M2.60001 21.6001H15V11.2001H2.60001V21.6001Z" fill-rule="evenodd"
        stroke="black" stroke-width="0.8" />
    <path clip-rule="evenodd" d="M24.161 5.4637L24.1586 5.4545C23.5106 3.0757 21.4298 1.3893 18.9998 1.2173V1.2001H18.5906H17.3998H7.79983H6.60943H6.59983V1.2005C4.00063 1.2049 1.72463 2.9461 1.04143 5.4549C1.02063 5.5277 1.07543 5.6001 1.15103 5.6001H6.59983H6.99983H18.1998H18.9998H24.0582C24.1294 5.6001 24.1806 5.5321 24.161 5.4637V5.4637Z"
        fill-rule="evenodd"
        stroke="black" stroke-width="0.8" />
    <path clip-rule="evenodd" d="M21.4 9.20009H21C19.4536 9.20009 18.2 7.94649 18.2 6.40009C18.2 7.94649 16.9464 9.20009 15.4 9.20009C13.8536 9.20009 12.6 7.94649 12.6 6.40009C12.6 7.94649 11.3464 9.20009 9.8 9.20009C8.2536 9.20009 7 7.94649 7 6.40009C7 7.94649 5.7464 9.20009 4.2 9.20009H3.8C2.2536 9.20009 1 7.94649 1 6.40009V24.4001H24.2V6.40009C24.2 7.94649 22.9464 9.20009 21.4 9.20009V9.20009Z"
        fill-rule="evenodd"
        stroke="black" stroke-width="0.8" />
    <path d="M16.6 18.8001H22.6" stroke="black" stroke-linecap="round" stroke-width="0.8" />
</svg>
