<svg fill="none" height="25" viewBox="0 0 24 25" width="24" xmlns="http://www.w3.org/2000/svg">
    <path clip-rule="evenodd" d="M3.43098 20C2.74447 20 2.12433 19.7417 1.63434 19.2577H1.63448C0.621331 18.2585 0.654487 16.6127 1.73273 15.6449L2.54939 14.9354C3.07256 14.4843 3.36605 13.8063 3.36605 13.0968V9.16135C3.36605 4.93619 6.63267 0 12.1859 0H12.6759C18.2292 0 21.4958 4.96748 21.4958 9.16135V13.0968C21.4958 13.8063 21.7893 14.4515 22.3125 14.9354L23.1291 15.6449C24.2074 16.6126 24.2406 18.2572 23.2274 19.2577C22.7374 19.7417 22.1173 20 21.4307 20H3.43098ZM15.9408 22C15.9408 23.6574 14.37 25 12.4309 25C10.4919 25 8.92107 23.6574 8.92107 22H15.9408Z"
        fill="#BAC0C5"
        fill-rule="evenodd" />
</svg>
