<svg fill="none" height="24" viewBox="0 0 24 24" width="24" xmlns="http://www.w3.org/2000/svg">
    <path
        d="M10.2857 0C9.65257 0 9.14286 0.509714 9.14286 1.14286V2.71429C8.5516 2.89573 7.98366 3.12541 7.44643 3.41071L6.33929 2.30357C5.89157 1.85587 5.17091 1.85587 4.72323 2.30357L2.30357 4.72321C1.85586 5.17091 1.85586 5.89159 2.30357 6.33929L3.41071 7.44643C3.1254 7.98369 2.89571 8.55163 2.71429 9.14286H1.14286C0.509714 9.14286 0 9.65257 0 10.2857V13.7143C0 14.3474 0.509714 14.8571 1.14286 14.8571H2.71429C2.89571 15.4484 3.1254 16.0163 3.41071 16.5536L2.30357 17.6607C1.85586 18.1084 1.85586 18.8291 2.30357 19.2768L4.72323 21.6964C5.17091 22.1441 5.89157 22.1441 6.33929 21.6964L7.44643 20.5893C7.98366 20.8746 8.5516 21.1043 9.14286 21.2857V22.8571C9.14286 23.4903 9.65257 24 10.2857 24H13.7143C14.3474 24 14.8571 23.4903 14.8571 22.8571V21.2857C15.4456 21.1046 16.0097 20.8734 16.5447 20.5893L17.6518 21.6964C18.0995 22.1441 18.8201 22.1441 19.2679 21.6964L21.6964 19.2768C22.1441 18.8291 22.1441 18.1084 21.6964 17.6607L20.5804 16.5446C20.864 16.0094 21.105 15.4459 21.2857 14.8571H22.8571C23.4903 14.8571 24 14.3474 24 13.7143V10.2857C24 9.65257 23.4903 9.14286 22.8571 9.14286H21.2857C21.105 8.55411 20.864 7.99059 20.5804 7.45536L21.6964 6.33929C22.1441 5.89159 22.1441 5.17091 21.6964 4.72321L19.2679 2.30357C18.8201 1.85587 18.0995 1.85587 17.6518 2.30357L16.5447 3.41071C16.0097 3.12664 15.4456 2.89543 14.8571 2.71429V1.14286C14.8571 0.509714 14.3474 0 13.7143 0H10.2857ZM12 5.71429C15.4614 5.71429 18.2857 8.53867 18.2857 12C18.2857 15.4613 15.4614 18.2857 12 18.2857C8.53866 18.2857 5.71429 15.4613 5.71429 12C5.71429 8.53865 8.53866 5.71429 12 5.71429ZM12 7.42857C9.46511 7.42857 7.42857 9.46513 7.42857 12C7.42857 14.5349 9.46511 16.5714 12 16.5714C14.5349 16.5714 16.5714 14.5349 16.5714 12C16.5714 9.46513 14.5349 7.42857 12 7.42857Z"
        fill="#BAC0C5" />
</svg>
