<svg fill="none" height="25" viewBox="0 0 26 25" width="26" xmlns="http://www.w3.org/2000/svg">
    <path clip-rule="evenodd" d="M19.4 12.6001C19.4 16.1349 16.5348 19.0001 13 19.0001V24.2001C19.4064 24.2001 24.6 19.0065 24.6 12.6001C24.6 6.19369 19.4064 1.00009 13 1.00009V6.20009C16.5348 6.20009 19.4 9.06529 19.4 12.6001Z"
        fill="#6B7C92"
        fill-rule="evenodd" />
    <path clip-rule="evenodd" d="M13 24.2001C16.2032 24.2001 19.1032 22.9017 21.2024 20.8025C19.3856 18.9857 19.0864 18.6865 17.5256 17.1257C16.3672 18.2837 14.7672 19.0001 13 19.0001C11.2328 19.0001 9.63278 18.2837 8.47438 17.1257L4.79758 20.8025C6.89678 22.9017 9.79678 24.2001 13 24.2001Z"
        fill="#6B7C92"
        fill-rule="evenodd" />
    <path clip-rule="evenodd" d="M6.59999 12.6001C6.59999 9.06529 9.46519 6.20009 13 6.20009V1.00009C6.59359 1.00009 1.39999 6.19369 1.39999 12.6001C1.39999 15.8033 2.69839 18.7033 4.79759 20.8025L8.47439 17.1257C7.31639 15.9673 6.59999 14.3673 6.59999 12.6001Z"
        fill="#6B7C92"
        fill-rule="evenodd" />
    <path
        d="M7.39998 12.6001C7.39998 9.50713 9.90701 7.0001 13 7.0001V6.2001C9.46518 6.2001 6.59998 9.0653 6.59998 12.6001H7.39998ZM13 18.2001C9.90701 18.2001 7.39998 15.6931 7.39998 12.6001H6.59998C6.59998 16.1349 9.46518 19.0001 13 19.0001V18.2001ZM18.6 12.6001C18.6 15.6931 16.093 18.2001 13 18.2001V19.0001C16.5348 19.0001 19.4 16.1349 19.4 12.6001H18.6ZM13 7.0001C16.093 7.0001 18.6 9.50713 18.6 12.6001H19.4C19.4 9.0653 16.5348 6.2001 13 6.2001V7.0001ZM13 5.4001C9.02336 5.4001 5.79998 8.62347 5.79998 12.6001H6.59998C6.59998 9.0653 9.46519 6.2001 13 6.2001V5.4001ZM20.2 12.6001C20.2 8.62347 16.9766 5.4001 13 5.4001V6.2001C16.5348 6.2001 19.4 9.0653 19.4 12.6001H20.2ZM13 19.8001C16.9766 19.8001 20.2 16.5767 20.2 12.6001H19.4C19.4 16.1349 16.5348 19.0001 13 19.0001V19.8001ZM5.79998 12.6001C5.79998 16.5767 9.02336 19.8001 13 19.8001V19.0001C9.46518 19.0001 6.59998 16.1349 6.59998 12.6001H5.79998ZM13 0.200098C6.15176 0.200098 0.599985 5.75187 0.599985 12.6001H1.39998C1.39998 6.1937 6.59359 1.0001 13 1.0001V0.200098ZM25.4 12.6001C25.4 5.75187 19.8482 0.200098 13 0.200098V1.0001C19.4064 1.0001 24.6 6.1937 24.6 12.6001H25.4ZM13 25.0001C19.8482 25.0001 25.4 19.4483 25.4 12.6001H24.6C24.6 19.0065 19.4064 24.2001 13 24.2001V25.0001ZM0.599985 12.6001C0.599985 19.4483 6.15176 25.0001 13 25.0001V24.2001C6.59359 24.2001 1.39998 19.0065 1.39998 12.6001H0.599985ZM2.19998 12.6001C2.19998 6.63553 7.03541 1.8001 13 1.8001V1.0001C6.59359 1.0001 1.39998 6.1937 1.39998 12.6001H2.19998ZM13 23.4001C7.03541 23.4001 2.19998 18.5647 2.19998 12.6001H1.39998C1.39998 19.0065 6.59359 24.2001 13 24.2001V23.4001ZM23.8 12.6001C23.8 18.5647 18.9646 23.4001 13 23.4001V24.2001C19.4064 24.2001 24.6 19.0065 24.6 12.6001H23.8ZM13 1.8001C18.9646 1.8001 23.8 6.63553 23.8 12.6001H24.6C24.6 6.1937 19.4064 1.0001 13 1.0001V1.8001Z"
        fill="black" />
    <path d="M13 6.20009V1.00009" stroke="black" stroke-linecap="round" stroke-width="0.8" />
    <path d="M17.5312 17.1313L21.2064 20.8065" stroke="black" stroke-linecap="round"
        stroke-width="0.8" />
    <path d="M8.46566 17.1344L4.79406 20.806" stroke="black" stroke-linecap="round"
        stroke-width="0.8" />
</svg>
